<svg width="142" height="31" viewBox="0 0 142 31" fill="none" xmlns="http://www.w3.org/2000/svg">
<g id="logo holder">
<g id="Group">
<path id="Vector" d="M46.4154 0.93309C41.6139 0.93309 36.9214 4.38923 36.9214 10.7542L36.9246 10.7575C36.9246 17.0505 41.5801 20.5786 46.7087 20.5786C49.9097 20.5786 52.6375 19.2681 54.2751 17.2315L52.3813 15.2668C50.9989 16.5784 49.1803 17.2315 47.1437 17.2315C43.9056 17.2315 41.3238 15.5557 40.7046 12.2838H55.5453C56.4546 4.35326 51.2169 0.934178 46.4154 0.934178M40.6708 9.30415C41.2497 5.95703 43.7595 4.35652 46.4525 4.35652C49.1454 4.35652 51.7653 6.03117 51.9834 9.30415H40.6708Z" fill="#1D1D1B"/>
<path id="Vector_2" d="M58.1292 0.93309H62.1304V6.17072C62.7846 3.33385 64.6773 0.93309 68.1345 0.93309C68.5706 0.93309 68.9348 0.970159 69.3371 1.07919V4.90056C68.9359 4.82861 68.6088 4.79154 68.1727 4.79154C64.5737 4.79154 62.1348 7.41036 62.1348 11.3746V20.5786H58.1335V0.93309H58.1302H58.1292Z" fill="#1D1D1B"/>
<path id="Vector_3" d="M84.0753 9.37176C84.0753 6.31683 82.5838 4.57023 80.074 4.57023C77.5642 4.57023 75.8176 6.31683 75.8176 9.37176V20.6178H71.8163V0.934189H75.8176V3.98911C76.8021 2.31665 78.5825 0.934189 81.4194 0.934189C83.8921 0.934189 86.0029 2.02446 87.1673 4.39033C88.1856 2.5347 90.2593 0.934189 93.4974 0.934189C97.4616 0.934189 100.373 3.44398 100.373 9.15479V20.6189H96.3342V9.37285C96.3342 6.31792 94.8428 4.57132 92.333 4.57132C89.8232 4.57132 88.1136 6.31792 88.1136 9.37285V20.6189H84.0753V9.37285V9.37176Z" fill="#1D1D1B"/>
<path id="Vector_4" d="M117.912 9.30415C117.694 6.03117 115.075 4.35652 112.382 4.35652C109.689 4.35652 107.178 5.95703 106.599 9.30415H117.912ZM102.853 10.7542C102.853 4.38923 107.545 0.93309 112.347 0.93309C117.148 0.93309 122.386 4.35216 121.477 12.2838H106.636C107.256 15.5568 109.837 17.2315 113.076 17.2315C115.113 17.2315 116.932 16.5773 118.314 15.2657L120.204 17.2315C118.566 19.2681 115.839 20.5786 112.638 20.5786C107.509 20.5786 102.854 17.0505 102.854 10.7575" fill="#1D1D1B"/>
<path id="Vector_5" d="M141.646 12.7003C141.641 9.98773 141.637 7.27733 141.637 4.39467V0.946162H134.321C131.555 0.826233 128.895 1.78566 127.015 3.5846C125.122 5.39662 124.122 7.88897 124.122 10.7923C124.122 17.2206 129.255 20.6887 134.085 20.6887C135.317 20.6887 136.57 20.4619 137.724 20.0313V21.3777C137.724 24.099 135.528 26.5281 132.725 26.9087C132.313 26.9643 131.195 26.9555 130.527 26.9501C130.357 26.949 130.211 26.9501 130.105 26.9479H130.005L128.377 30.8107H128.606C128.888 30.8074 129.247 30.8085 129.641 30.8107C129.944 30.8107 130.269 30.8129 130.596 30.8129C131.439 30.8129 132.298 30.8042 132.865 30.7606C133.714 30.6962 134.448 30.561 135.108 30.3463C136.538 29.8807 137.865 29.0358 138.946 27.9019C140.696 26.067 141.683 23.5615 141.654 21.0299C141.654 18.1342 141.65 15.4162 141.646 12.6992M137.725 15.4358C136.73 16.2655 135.44 16.7223 134.086 16.7223L133.934 16.7256C131.871 16.707 130.198 15.7781 129.211 14.0991C128.079 12.1759 128.064 9.58216 129.173 7.64475C130.2 5.848 132.027 4.85912 134.316 4.85912H137.725V15.4358Z" fill="#1D1D1B"/>
<path id="Vector_6" d="M0.814941 20.5786H5.08769L13.4021 0.933105H9.09442L0.814941 20.5786Z" fill="#E52234"/>
<path id="Vector_7" d="M35.5988 0.93309H31.4504L25.7396 15.0117L19.9917 0.93309H15.8814L22.2976 16.1717L24.1707 20.6178H26.6118H27.2714L35.5988 0.93309Z" fill="#1D1D1B"/>
</g>
</g>
</svg>
